#!OML:ASF H:\Pregnant\Project 1\Capture day 1\Session 1\femalepreg.ASF
:FULLY-SPECIFIED
:DEGREES
1286
root 13.0989 6.69079 23.0573 -150.805 -16.9781 183.532
lowerback 41.0389 5.52967 1.31535
upperback 7.7076 3.62937 -8.71226
thorax -10.6899 0.750613 -11.7017
lowerneck -3.64016 21.6271 17.3312
upperneck 24.0855 28.7759 -7.32643
head 12.1465 14.0937 -1.01417
rclavicle -3.40419e-014 -8.99625e-014
rhumerus 16.5734 19.0852 -94.903
rradius 36.2431
rwrist 10.8502
rhand -64.1465 180.893
rfingers 7.12502
rthumb -36.0898 -512.813
lclavicle -3.40419e-014 -8.99625e-014
lhumerus 43.3199 -23.8377 64.4476
lradius 40.1559
lwrist -7.83079
lhand -49.065 -430.785
lfingers 7.12502
lthumb -21.6914 318.02
rfemur -79.9256 7.53932 27.8973
rtibia 148.484
rfoot -13.1681 -0.347117
rtoes -12.6888
lfemur -80.4497 48.3639 6.83943
ltibia 148.52
lfoot -315.137 -45.1899
ltoes -26.6568
1287
root 13.0956 6.67552 23.0928 -151.336 -17.0262 183.801
lowerback 41.3125 5.43987 1.43075
upperback 7.72019 3.5279 -8.71061
thorax -10.7786 0.687673 -11.7298
lowerneck -3.49033 21.8015 17.3858
upperneck 23.9612 29.0497 -7.41103
head 12.1307 14.2234 -1.00564
rclavicle -2.48481e-015 -3.84648e-014
rhumerus 16.883 19.0108 -95.1293
rradius 35.6362
rwrist 11.1251
rhand -64.1831 179.936
rfingers 7.12502
rthumb -36.1244 -513.778
lclavicle -2.48481e-015 -3.84648e-014
lhumerus 42.5643 -23.5474 64.4769
lradius 41.2449
lwrist -7.91478
lhand -49.1009 -429.661
lfingers 7.12502
lthumb -21.7259 319.14
rfemur -79.7019 7.83795 27.739
rtibia 148.464
rfoot -13.4937 0.0729642
rtoes -14.1638
lfemur -79.9819 49.2057 7.89366
ltibia 148.735
lfoot -314.672 -45.6288
ltoes -26.1029
1288
root 13.0909 6.661 23.1272 -151.851 -17.0871 184.064
lowerback 41.5728 5.34006 1.53235
upperback 7.74059 3.41402 -8.68471
thorax -10.8568 0.620047 -11.715
lowerneck -3.33257 21.9782 17.3627
upperneck 23.7882 29.346 -7.52635
head 12.0898 14.3592 -0.999067
rclavicle -3.97569e-016 1.13953e-013
rhumerus 17.176 18.9234 -95.3644
rradius 35.0457
rwrist 11.4576
rhand -64.2235 178.908
rfingers 7.12502
rthumb -36.1627 -514.815
lclavicle -3.97569e-016 1.13953e-013
lhumerus 41.7191 -23.1857 64.56
lradius 42.3752
lwrist -7.99966
lhand -49.1148 -428.632
lfingers 7.12502
lthumb -21.7393 320.167
rfemur -79.4727 8.12261 27.6035
rtibia 148.438
rfoot -13.8056 0.442316
rtoes -15.5481
lfemur -79.5554 49.9424 8.88758
ltibia 148.943
lfoot -314.249 -46.0184
ltoes -25.5326
1289
root 13.0851 6.64736 23.1604 -152.35 -17.1619 184.321
lowerback 41.8201 5.24082 1.61682
upperback 7.77017 3.30056 -8.62851
thorax -10.9205 0.554031 -11.654
lowerneck -3.17279 22.1478 17.2731
upperneck 23.5731 29.6516 -7.67995
head 12.0291 14.4948 -0.999748
rclavicle -9.54166e-015 3.44891e-014
rhumerus 17.4557 18.8403 -95.5654
rradius 34.4846
rwrist 11.808
rhand -64.2653 177.841
rfingers 7.12502
rthumb -36.2023 -515.893
lclavicle -9.54166e-015 3.44891e-014
lhumerus 40.7972 -22.7719 64.7068
lradius 43.5316
lwrist -8.04671
lhand -49.0772 -427.708
lfingers 7.12502
lthumb -21.7032 321.095
rfemur -79.2424 8.00836 27.4283
rtibia 148.405
rfoot -14.1612 0.943882
rtoes -16.832
lfemur -79.1745 50.5623 9.81492
ltibia 149.142
lfoot -313.859 -46.3496
ltoes -24.9441
1290
root 13.0782 6.63476 23.1923 -152.834 -17.251 184.57
lowerback 42.0581 5.15138 1.69138
upperback 7.80909 3.20089 -8.54645
thorax -10.9676 0.495747 -11.562
lowerneck -3.01846 22.2995 17.1486
upperneck 23.3265 29.9461 -7.87214
head 11.9572 14.6224 -1.01323
rclavicle 1.33186e-013 -5.83433e-014
rhumerus 17.7256 18.7601 -95.7059
rradius 33.9613
rwrist 12.1422
rhand -64.3053 176.757
rfingers 7.12502
rthumb -36.2401 -516.986
lclavicle 1.33186e-013 -5.83433e-014
lhumerus 39.8184 -22.3412 64.9115
lradius 44.7023
lwrist -8.00996
lhand -48.9591 -426.897
lfingers 7.12502
lthumb -21.5897 321.92
rfemur -78.9989 7.83999 27.2736
rtibia 148.367
rfoot -14.503 1.40563
rtoes -18.0038
lfemur -78.8374 51.0606 10.6762
ltibia 149.328
lfoot -313.487 -46.6155
ltoes -24.3369
1291
root 13.0704 6.6233 23.2228 -153.304 -17.3543 184.811
lowerback 42.2896 5.07771 1.76428
upperback 7.85634 3.12436 -8.44654
thorax -10.9977 0.449275 -11.4572
lowerneck -2.87513 22.4255 17.0215
upperneck 23.0592 30.2119 -8.09714
head 11.8817 14.7353 -1.04259
rclavicle 5.52621e-014 -7.38485e-014
rhumerus 17.988 18.6801 -95.7712
rradius 33.4811
rwrist 12.4346
rhand -64.3407 175.68
rfingers 7.12502
rthumb -36.2736 -518.071
lclavicle 5.52621e-014 -7.38485e-014
lhumerus 38.7989 -21.9253 65.1623
lradius 45.8811
lwrist -7.8479
lhand -48.7407 -426.192
lfingers 7.12502
lthumb -21.38 322.649
rfemur -78.7412 7.61811 27.1394
rtibia 148.324
rfoot -14.8278 1.82734
rtoes -19.0544
lfemur -78.5454 51.4368 11.4704
ltibia 149.501
lfoot -313.118 -46.8116
ltoes -23.7096
1292
root 13.0619 6.61301 23.2521 -153.758 -17.4714 185.042
lowerback 42.5163 5.02178 1.8427
upperback 7.90949 3.07487 -8.33831
thorax -11.0132 0.416134 -11.3569
lowerneck -2.74458 22.5219 16.9173
upperneck 22.7799 30.4375 -8.34536
head 11.8076 14.83 -1.08839
rclavicle -2.34566e-014 -1.44914e-013
rhumerus 18.2425 18.5966 -95.7595
rradius 33.0469
rwrist 12.6725
rhand -64.3698 174.635
rfingers 7.12502
rthumb -36.3012 -519.123
lclavicle -2.34566e-014 -1.44914e-013
lhumerus 37.7465 -21.5451 65.4476
lradius 47.0673
lwrist -7.54078
lhand -48.4222 -425.558
lfingers 7.12502
lthumb -21.074 323.317
rfemur -78.4725 7.34088 27.0226
rtibia 148.277
rfoot -15.133 2.21264
rtoes -19.9793
lfemur -78.3047 51.6926 12.192
ltibia 149.661
lfoot -312.744 -46.9353
ltoes -23.0629
1293
root 13.0527 6.60386 23.28 -154.193 -17.6012 185.261
lowerback 42.7381 4.98242 1.93
upperback 7.96524 3.05131 -8.23006
thorax -11.018 0.39559 -11.2723
lowerneck -2.6263 22.5899 16.8504
upperneck 22.4952 30.6197 -8.60545
head 11.7374 14.9059 -1.14853
rclavicle 4.49253e-014 -3.57812e-014
rhumerus 18.4865 18.5075 -95.6786
rradius 32.6598
rwrist 12.8526
rhand -64.3926 173.642
rfingers 7.12502
rthumb -36.3227 -520.121
lclavicle 4.49253e-014 -3.57812e-014
lhumerus 36.6601 -21.2066 65.7574
lradius 48.2641
lwrist -7.09852
lhand -48.0256 -424.941
lfingers 7.12502
lthumb -20.693 323.975
rfemur -78.1998 7.00567 26.9176
rtibia 148.23
rfoot -15.4165 2.56865
rtoes -20.7782
lfemur -78.1263 51.8315 12.8305
ltibia 149.809
lfoot -312.365 -46.9863
ltoes -22.3974
1294
root 13.043 6.59573 23.3067 -154.603 -17.7431 185.465
lowerback 42.9537 4.95358 2.03123
upperback 8.01974 3.0473 -8.13174
thorax -11.0175 0.384547 -11.2152
lowerneck -2.51923 22.6346 16.8251
upperneck 22.2093 30.761 -8.86213
head 11.6704 14.9654 -1.21806
rclavicle -6.71892e-014 -2.64384e-014
rhumerus 18.7151 18.4049 -95.5495
rradius 32.3187
rwrist 12.9824
rhand -64.4105 172.737
rfingers 7.12502
rthumb -36.3397 -521.031
lclavicle -6.71892e-014 -2.64384e-014
lhumerus 35.5348 -20.9068 66.0796
lradius 49.4741
lwrist -6.56217
lhand -47.5919 -424.278
lfingers 7.12502
lthumb -20.2762 324.684
rfemur -77.9331 6.60506 26.8159
rtibia 148.185
rfoot -15.6798 2.90539
rtoes -21.4595
lfemur -78.0311 51.8542 13.3655
ltibia 149.948
lfoot -311.99 -46.9635
ltoes -21.7134
1295
root 13.0327 6.58849 23.3322 -154.983 -17.8966 185.652
lowerback 43.159 4.929 2.14609
upperback 8.07095 3.05477 -8.04824
thorax -11.0142 0.379331 -11.1876
lowerneck -2.42202 22.6637 16.8346
upperneck 21.9242 30.87 -9.10468
head 11.6052 15.0126 -1.29146
rclavicle -9.42239e-014 3.91606e-014
rhumerus 18.925 18.2825 -95.3945
rradius 32.02
rwrist 13.0747
rhand -64.4264 171.942
rfingers 7.12502
rthumb -36.3548 -521.829
lclavicle -9.42239e-014 3.91606e-014
lhumerus 34.3636 -20.6297 66.4091
lradius 50.6958
lwrist -5.997
lhand -47.1708 -423.511
lfingers 7.12502
lthumb -19.8715 325.493
rfemur -77.6816 6.12951 26.7072
rtibia 148.145
rfoot -15.9283 3.23434
rtoes -22.038
lfemur -78.0391 51.759 13.7742
ltibia 150.081
lfoot -311.635 -46.8666
ltoes -21.0115
1296
root 13.0218 6.58202 23.3566 -155.329 -18.0612 185.819
lowerback 43.3507 4.90101 2.27757
upperback 8.11787 3.06488 -7.98609
thorax -11.0101 0.375905 -11.1946
lowerneck -2.33409 22.6852 16.8734
upperneck 21.6407 30.9566 -9.32444
head 11.5405 15.0522 -1.3637
rclavicle -7.27552e-014 -2.64384e-014
rhumerus 19.1137 18.1251 -95.2434
rradius 31.7578
rwrist 13.1482
rhand -64.4429 171.261
rfingers 7.12502
rthumb -36.3704 -522.514
lclavicle -7.27552e-014 -2.64384e-014
lhumerus 33.1447 -20.3613 66.7358
lradius 51.9218
lwrist -5.46833
lhand -46.8062 -422.604
lfingers 7.12502
lthumb -19.5209 326.436
rfemur -77.452 5.57003 26.5814
rtibia 148.113
rfoot -16.1699 3.56616
rtoes -22.5333
lfemur -78.1654 51.5444 14.0374
ltibia 150.21
lfoot -311.319 -46.6946
ltoes -20.2897
1297
root 13.0104 6.57621 23.3799 -155.64 -18.2366 185.965
lowerback 43.5248 4.86274 2.42947
upperback 8.16225 3.06988 -7.95043
thorax -11.0033 0.370793 -11.2405
lowerneck -2.25531 22.7056 16.9394
upperneck 21.358 31.0301 -9.52073
head 11.4766 15.0883 -1.4324
rclavicle 1.70955e-014 -6.34123e-014
rhumerus 19.2818 17.9138 -95.1251
rradius 31.5241
rwrist 13.2242
rhand -64.4617 170.685
rfingers 7.12502
rthumb -36.3882 -523.095
lclavicle 1.70955e-014 -6.34123e-014
lhumerus 31.884 -20.0899 67.0485
lradius 53.1388
lwrist -5.02154
lhand -46.5234 -421.542
lfingers 7.12502
lthumb -19.2491 327.525
rfemur -77.246 4.91796 26.4284
rtibia 148.089
rfoot -16.4156 3.91012
rtoes -22.9676
lfemur -78.4149 51.2088 14.144
ltibia 150.335
lfoot -311.062 -46.4501
ltoes -19.5485
1298
root 12.9982 6.57104 23.4021 -155.918 -18.4212 186.09
lowerback 43.6812 4.80921 2.60737
upperback 8.20646 3.0646 -7.94674
thorax -10.992 0.361546 -11.3321
lowerneck -2.18521 22.7292 17.0364
upperneck 21.0734 31.0972 -9.69738
head 11.4145 15.1238 -1.49763
rclavicle -9.54166e-015 1.3577e-013
rhumerus 19.4309 17.627 -95.066
rradius 31.3106
rwrist 13.3241
rhand -64.4833 170.174
rfingers 7.12502
rthumb -36.4087 -523.611
lclavicle -9.54166e-015 1.3577e-013
lhumerus 30.5937 -19.812 67.3331
lradius 54.3308
lwrist -4.66544
lhand -46.3244 -420.342
lfingers 7.12502
lthumb -19.0577 328.745
rfemur -77.0595 4.17273 26.2414
rtibia 148.073
rfoot -16.6747 4.27119
rtoes -23.3617
lfemur -78.7716 50.7594 14.1036
ltibia 150.456
lfoot -310.873 -46.14
ltoes -18.7851
